<svg xmlns="http://www.w3.org/2000/svg" width="460.668" height="293.882" viewBox="0 0 460.668 293.882"><path d="M490.03 457.72c-3.643-1.843-7.03-7.445-7.026-11.618.01-9.731 11.155-16.174 20.036-11.581 3.123 1.615 6.96 7.975 6.96 11.538 0 3.607-3.177 9.078-6.42 11.055-3.527 2.151-9.931 2.438-13.55.607m-188.53-3.625c-38.154-.505-45.532-.837-48.5-2.188-1.925-.876-5.3-1.927-7.5-2.335s-4.675-1.318-5.5-2.022c-.825-.705-2.752-1.579-4.282-1.943-8.206-1.95-30.637-19.571-34.387-27.012-.858-1.702-2.611-4.222-3.897-5.599-5.947-6.372-13.775-29.034-12.727-36.847.353-2.632.091-4.687-.722-5.667-1.85-2.229-.568-16.182 2.396-26.084 5.38-17.974 14.665-31.183 30.188-42.946 6.77-5.13 20.414-12.452 23.204-12.452.73 0 2.001-1.687 2.823-3.75 6.167-15.483 8.62-19.578 16.352-27.315 13.4-13.408 30.102-19.767 48.98-18.648l9.572.567 3.13-6.677c1.721-3.672 3.73-8.239 4.462-10.148.734-1.909 3.912-6.892 7.063-11.074 25.666-34.061 70.885-52.483 111.46-45.407 16.296 2.842 33.584 9.77 46.86 18.778 9.132 6.196 20.643 18.188 27.045 28.174 3.173 4.95 6.466 9.562 7.316 10.25.85.687 4.048 1.257 7.105 1.265 13.936.037 29.048 6.429 40.513 17.135C580.03 249.226 586 257.31 586 260.493c0 1 1.05 3.21 2.334 4.913 2.904 3.85 4.643 8.798 4.742 13.493.17 8.02 2.016 10.246 15.426 18.601 4.893 3.049 6.255 4.334 14.168 13.37 4.401 5.027 7.33 9.26 7.33 10.596 0 1.223.949 3.081 2.108 4.129 3.303 2.985 6.899 10.95 8.468 18.76L643.119 357c1.502 7.466.432 19.875-2.624 30.422-2.467 8.512-7.541 19.87-9.386 21.01-.515.319-1.868 2.49-3.006 4.824-2.708 5.55-14.369 17.744-16.97 17.744-1.098 0-2.957 1.348-4.13 2.996-2.247 3.156-9.628 8.004-12.186 8.004-.829 0-2.274.848-3.212 1.884-1.82 2.01-9.026 4.847-19.605 7.718-5.018 1.361-11.343 1.835-27.737 2.078l-21.237.315.608-7.248c.532-6.349.331-7.713-1.617-11.005-1.224-2.068-1.976-4.407-1.672-5.2.333-.867-.224-1.686-1.401-2.06-1.075-.341-3.19-1.628-4.7-2.86-6.635-5.414-10.512-6.983-16.744-6.772-3.3.111-8.475 1.105-11.5 2.208-4.46 1.627-6.162 2.95-9 6.995-6.92 9.862-3.681 8.99-27.5 7.41-37.436-2.484-65.932-4.866-83-6.938-2.2-.267-9.355-.953-15.9-1.523-15.42-1.345-25.105-3.405-29.204-6.214-8.407-5.76-9.912-18.29-3.08-25.635 4.777-5.135 8.647-6.121 41.684-10.62 44.543-6.063 56.935-8.317 63.64-11.57 7.114-3.453 9.373-6.342 9.733-12.45.213-3.622 1.655-6.435 8.305-16.198 25.898-38.025 32.354-53.697 28.916-70.188-2.586-12.402-8.448-21.193-18.692-28.034-14.151-9.45-33.031-10.68-47.854-3.117-6.696 3.415-15.724 12.62-19.095 19.467-7.268 14.765-6.265 27.439 3.757 47.433 3.184 6.354 6.532 12.31 7.438 13.236.907.927 2.908 3.868 4.449 6.536 1.54 2.669 5.885 9.29 9.656 14.715 4.173 6.002 6.737 10.66 6.552 11.9-.586 3.915-4.686 5.578-17.805 7.222-6.875.861-15.2 2.052-18.5 2.647s-9.825 1.45-14.5 1.9c-10.129.977-31.921 4.46-40.969 6.548-3.558.82-9.191 3.015-12.518 4.876-4.976 2.783-6.706 4.491-9.745 9.629-8.78 14.843-7.175 29.367 4.505 40.758 3.996 3.898 7.069 5.877 11.353 7.312 11.078 3.713 53.617 8.562 117.226 13.364 17.848 1.347 32.682 2.682 32.966 2.965.283.284-24.469.516-55.005.516s-58.173.155-61.416.345-26.147.077-50.897-.25m115.544-151.672c-9.562-4.148-14.428-11.171-14.495-20.923-.14-20.28 26.504-30.023 40.587-14.842 4.175 4.501 5.864 8.774 5.864 14.832 0 8.969-5.733 17.42-14.218 20.96-4.671 1.948-13.214 1.935-17.738-.027" style="display:inline;fill:#2a4bb4" transform="translate(-183.124 -165.048)"/><path d="M490.372 456.465c-1.876-.958-3.839-3.174-4.905-5.54-1.509-3.344-1.6-4.54-.599-7.88 3.25-10.848 17.31-11.905 22.28-1.676 2.004 4.123 2.065 4.784.765 8.2-2.644 6.947-11.003 10.233-17.54 6.896M263.5 452.5c-.55-.189-3.144-.632-5.765-.985-4.537-.611-4.89-.891-7.358-5.829-1.425-2.852-3.636-6.311-4.912-7.686-1.277-1.375-3.302-4.975-4.5-8-4.27-10.771-.688-27.848 7.24-34.519 4.198-3.532 15.126-8.94 22.253-11.012 6.622-1.925 11.795-1.057 15.034 2.522 2.167 2.395 5.334 2.625 6.17.45.852-2.223-4.146-7.078-9.322-9.055-3.72-1.421-5.189-1.482-10.58-.44-8.036 1.556-23.316 8.751-27.517 12.96-9.834 9.85-13.8 26.982-9.743 42.094 1.75 6.518 1.92 11 .418 11-1.924 0-13.274-7.087-18.557-11.587l-5.138-4.377.478-12.768.479-12.768 5.707-6.985c6.76-8.274 12.227-12.655 18.802-15.07 14.966-5.495 23.645-8.903 30.513-11.983l7.701-3.453 8.299 2.632c8.317 2.638 12.798 5.48 12.798 8.119 0 .776 1.575 2.805 3.5 4.51s3.5 3.522 3.5 4.041-1.41 3.807-3.133 7.307c-3.994 8.113-4.934 17.823-2.459 25.39l1.67 5.106-3.207 4.049-3.207 4.05 4.287-2.188 4.287-2.187 3.38 3.277c1.86 1.803 3.382 3.827 3.382 4.498s-2.005 1.987-4.457 2.924c-5.084 1.941-8.881 1.4-12.256-1.75-2.098-1.959-2.344-1.98-4.75-.403-1.395.914-2.537 2.271-2.537 3.016 0 2.164 9.898 5.844 17.133 6.37 5.859.426 7.223.161 11.681-2.265l5.048-2.748 8.319 1.607c15.115 2.92 57.721 7.586 97.819 10.714 7.975.622 14.688 1.309 14.917 1.526s-33.182.396-74.247.396h-74.664l-1.253-2.882c-.69-1.586-4.296-5.443-8.015-8.573-8.157-6.865-9.892-9.961-10.523-18.787-.266-3.717-.783-6.758-1.15-6.758-3.267 0-4.122 9.541-1.535 17.135 1.026 3.01 3.83 6.864 8.5 11.686 3.834 3.957 6.97 7.416 6.97 7.687 0 .544-17.907.537-19.5-.008m261.122-2.25c.362-1.512.81-2.927.995-3.142.51-.599 3.368 1.996 4.473 4.06.865 1.616.562 1.832-2.574 1.832-3.37 0-3.52-.142-2.894-2.75m12.906-.5c-1.469-1.787-3.662-4.816-4.875-6.729-1.212-1.913-4.218-4.838-6.679-6.5-4.415-2.981-4.438-3.025-1.721-3.338 5.566-.64 26.744 14.061 26.746 18.567 0 .846-1.746 1.25-5.4 1.25-4.88 0-5.66-.314-8.071-3.25m18.472.84c0-.776-1.794-3.68-3.987-6.454-6.877-8.7-22.79-18.108-30.663-18.126-5.457-.013-14.124-5.682-16.595-10.856-1.793-3.753-7.291-9.154-9.318-9.154-.627 0-3.255-1.125-5.841-2.5-5.405-2.874-9.204-3.163-12.373-.943-2.94 2.059-2.815 3.443.31 3.443 1.394 0 4.754 1.125 7.467 2.5s5.616 2.5 6.451 2.5 2.983 1.31 4.774 2.91l3.256 2.91-3.99.63c-3.827.605-9.698 2.136-12.158 3.17-1.767.744-10.745-9.01-15.177-16.49-2.412-4.069-4.16-8.466-4.524-11.383-.327-2.614-1.547-6.62-2.71-8.901s-2.522-6.667-3.018-9.747c-.495-3.08-1.56-8.749-2.366-12.599-.805-3.85-1.481-9.11-1.501-11.691-.02-2.58-.507-4.981-1.08-5.336-1.59-.983-3.645 1.217-4.328 4.634-.337 1.684-1.558 4.39-2.714 6.013-2.435 3.419-1.993 5.587 1.233 6.052 1.71.247 2.457 1.23 3.025 3.979.415 2.008 2.375 7.564 4.355 12.348 1.98 4.783 4.222 12.536 4.98 17.227 1.169 7.213 2.036 9.475 5.621 14.652 2.332 3.367 5.957 7.74 8.055 9.718 2.099 1.978 3.816 4.279 3.816 5.113s-1.35 3.215-3 5.291-3 4.163-3 4.638c0 1.016-10.119 1.132-18.872.218l-6.164-.645.768-3.605c.422-1.983.713-5.631.645-8.106-.166-6.11-3.066-22.55-4.426-25.091-.64-1.196-.824-3.704-.438-5.984.838-4.964-.713-5.13-2.995-.321-1.603 3.377-1.605 3.879-.042 7.972 2.612 6.839 3.95 16.13 3.722 25.846-.115 4.907-.326 9.039-.468 9.182-.478.477-44.751-3.292-45.318-3.859-.308-.307.158-1.947 1.036-3.643.953-1.844 1.341-4.094.965-5.593-.783-3.12-2.387-3.286-2.487-.259-.09 2.74-.77 6.761-1.458 8.636-.765 2.081-15.465.657-17.333-1.679-.988-1.236-1.494-1.362-1.833-.457-.5 1.332-8.572 1.636-11.389.43-1.404-.602-1.32-1.283.73-5.93 1.912-4.331 2.76-5.25 4.838-5.25 2.917 0 2.975-.188 1.167-3.8-1.117-2.229-1.134-3.962-.098-9.934 1.744-10.06 4.397-18.032 6.235-18.737.852-.327 4.174-.869 7.382-1.204 5.375-.562 5.833-.452 5.833 1.396 0 2.53-1.624 11.135-2.6 13.779-.729 1.973-.71 1.974 1.43.095 1.194-1.048 2.168-2.848 2.165-4-.008-3.323 3.313-11.692 4.984-12.56.837-.435 5.994-1.545 11.46-2.467 17.819-3.004 25.096-7.874 26.428-17.686.592-4.355 1.975-7.195 7.252-14.882 15.77-22.976 26.497-42.606 29.313-53.644 3.974-15.575-.453-30.323-12.598-41.968-10.062-9.65-19.393-13.388-33.41-13.388-15.23 0-27.151 5.684-36.648 17.473-12.031 14.933-12.805 33.635-2.229 53.848 2.45 4.68 4.453 9.016 4.453 9.635s-.892 2.344-1.982 3.834c-2.33 3.185-4.315 15.503-3.41 21.16.473 2.957-.125 5.781-2.584 12.199-1.76 4.593-3.599 8.768-4.088 9.277-.936.976-10.968 2.592-12.092 1.948-.36-.207-.17-1.962.425-3.9.743-2.42.759-3.846.05-4.555-1.393-1.393-6.664 3.085-8.31 7.06-.869 2.096-1.941 3.021-3.503 3.021-1.843 0-2.363-.707-2.875-3.907-.95-5.945-6.766-16.533-9.28-16.896-3.471-.501-3.736 2.641-.478 5.685 2.641 2.467 7.127 10.644 7.127 12.992 0 2.15-3.326 4.126-6.945 4.126-2.09 0-7.346.893-11.678 1.985-10.929 2.753-11.377 2.7-11.377-1.372 0-6.86-9.955-17.645-17.706-19.183-4.695-.931-17.459 1.987-24.59 5.623-7.726 3.939-35.605 15.663-41.834 17.593-9.256 2.867-20.64 12.737-28.092 24.354-1.94 3.025-5.125 7.018-7.077 8.872l-3.549 3.373-3.068-6.08C190 397.076 186 384.972 186 380.702c0-2.776.826-4.204 4.25-7.344 9.205-8.443 26.05-19.335 50.25-32.495 14.46-7.863 49.563-17.844 62.807-17.858 8.592-.009 12.458-1.883 21.451-10.397 17.443-16.514 21.219-20.866 26.044-30.017 4.961-9.409 7.063-9.397 3.352.02-1.069 2.711-2.099 7.625-2.288 10.919-.285 4.948.044 6.536 1.894 9.134 1.232 1.73 2.24 3.649 2.24 4.264s1.796 3.066 3.99 5.447c5.923 6.425 8.058 12.142 8.953 23.967.776 10.264 2.361 15.659 4.6 15.659 2.009 0 2.358-3.678.832-8.742-.79-2.617-1.343-7.908-1.23-11.758.178-6.109-.212-7.85-3.062-13.677-1.796-3.672-4.81-8.482-6.7-10.688-6.877-8.034-7.837-13.717-3.807-22.52 1.417-3.096 2.982-8.488 3.477-11.984 1.173-8.287 3.587-13.704 9.567-21.467 2.684-3.485 6.457-8.643 8.385-11.462 6.682-9.77 22.548-19.212 37.25-22.164 7.101-1.426 8.325-1.419 14.5.09 7.597 1.856 21.624 7.918 21.054 9.099-.205.425-.98 1.982-1.723 3.46-1.483 2.952-.803 6.209 1.165 5.58.687-.219 1.68-1.831 2.206-3.583 1.714-5.705 4.04-4.149 15.979 10.685 14.68 18.241 18.422 28.229 17.077 45.573-.381 4.919-1.574 12.344-2.65 16.5-5.407 20.875-.944 39.65 12.101 50.908C508.645 365.068 519 370.11 519 366.091c0-.534-3.937-4.182-8.75-8.107-19.356-15.783-23.107-27.14-17.334-52.484 3.002-13.18 2.87-30.654-.3-39.634-5.373-15.222-20.622-35.214-33.539-43.97-3.735-2.532-10.792-6.12-15.684-7.973-8.019-3.038-9.876-3.363-18.893-3.304-8.67.058-11.12.485-18.416 3.215-17.032 6.37-26.218 14.44-43.872 38.542-1.26 1.718-4.31 6.818-6.78 11.334-2.472 4.515-4.938 8.485-5.481 8.82-.544.337-2.167 2.942-3.606 5.79-3.405 6.738-10.204 16.207-15.021 20.922-6.472 6.334-17.691 15.838-20.324 17.217-1.413.74-7.935 1.595-15 1.966-6.875.361-14.3.91-16.5 1.219-6.294.884-3.126-1.025 7.5-4.52 5.225-1.718 12.875-4.812 17-6.874 6.89-3.445 7.762-4.238 10.722-9.75 3.47-6.462 4.333-12.5 1.788-12.5-.86 0-2.694 2.654-4.333 6.27-1.564 3.45-4.2 7.413-5.856 8.807-1.771 1.49-8.537 4.33-16.417 6.893-21.12 6.868-34.102 13.551-57.387 29.546-4.96 3.406-13.967 8.818-20.017 12.026-9.695 5.141-23.226 14.587-24.995 17.45-.342.554-1.334 1.008-2.202 1.008-1.362 0-1.484-1.062-.884-7.75.868-9.67 6.03-25.047 11.423-34.026 5.135-8.55 16.728-20.877 20.494-21.794 1.598-.389 6.787.073 11.882 1.058 11.043 2.134 13.314 1.849 32.282-4.059 23.55-7.334 32.26-12.574 42.75-25.718 11.627-14.565 16.174-20.59 19.972-26.46 2.048-3.163 8.237-10.701 13.755-16.751 7.037-7.715 10.984-13.016 13.22-17.75 2.448-5.188 3.673-6.75 5.291-6.75 1.159 0 3.706-1.688 5.662-3.75 4.162-4.389 12.85-20.086 12.85-23.217 0-4.235 18.874-11.012 38.237-13.73 10.252-1.438 13.528-1.508 22.744-.483 19.913 2.214 36.262 7.862 52.019 17.97 13.545 8.69 23.847 19.939 35.566 38.837 1.133 1.828 2.64 2.226 10.735 2.832 15.604 1.17 28.05 6.625 39.059 17.12 5.93 5.652 11.64 12.979 11.64 14.934 0 .667-2.491 1.997-5.536 2.955-6.564 2.064-11.893 1.41-14.558-1.79a990 990 0 0 1-4.246-5.146c-2.099-2.562-2.651-2.784-4.045-1.627-2.351 1.95-1.997 3.595 1.385 6.442 1.65 1.388 3 2.869 3 3.29 0 .423-1.396 2.208-3.101 3.967-2.074 2.14-3.736 5.47-5.017 10.048-5.498 19.66-5.324 18.659-3.801 21.768 1.795 3.668 6.04 6.855 8.083 6.07.86-.33 2.066-1.7 2.678-3.043 1.536-3.372 9.01-11.327 12.106-12.885 1.404-.707 5.702-1.575 9.552-1.928 3.85-.354 8.238-.919 9.75-1.255 2.118-.472 2.75-.24 2.75 1.004 0 .89.9 2.517 2 3.617 2.64 2.64 2.535 3-.88 3-3.626 0-19.884 5.843-27.79 9.988-5.68 2.977-6.208 3.582-10.322 11.825-5.107 10.234-5.677 14.228-4.045 28.335 1.135 9.807 1.415 10.635 5.331 15.722 2.316 3.008 6.216 6.527 8.867 8 5.485 3.048 5.635 3.322 10.317 18.767 4.13 13.622 12.885 30.99 18.885 37.466 8.69 9.378 9.79 11.008 8.483 12.582-.666.804-2.817 2.279-4.78 3.278l-3.566 1.817-4.316-3.835c-2.374-2.109-7.324-5.478-11-7.487s-8.171-4.776-9.99-6.148c-3.101-2.343-10.598-12.697-17.9-24.724-4.21-6.937-8.099-9.755-18.551-13.444-12.207-4.308-16.384-6.649-22.702-12.72C500.58 362.371 496.035 359 492.939 359c-4.348 0-3.691 2.247 2.104 7.195 2.774 2.368 8.563 7.738 12.865 11.933 4.94 4.818 9.251 8.1 11.703 8.908 5.774 1.906 15.403 6.614 17.791 8.7 1.154 1.007 5.698 6.934 10.098 13.17 13.993 19.835 15.276 21.21 23.626 25.352 6.365 3.157 7.86 4.384 9.339 7.663.968 2.148 1.48 4.36 1.136 4.915-.987 1.598-6.66 2.506-7.9 1.265-1.716-1.716-3.701-1.296-3.701.782 0 2.218-2.581 3.084-9.25 3.103-3.428.01-4.75-.379-4.75-1.396m-16.088-35.533c-1.312-2.334-5.07-6.004-9.214-9-6.03-4.358-7.645-5.057-11.675-5.057-4.143 0-5.51-.639-11.971-5.596-4.012-3.078-10.094-6.852-13.515-8.387-5.3-2.378-6.824-3.694-10.292-8.888-4.678-7.005-8.613-17.814-7.745-21.273 1.11-4.426-4.153-28.856-6.218-28.856-2.171 0-2.425 4.279-.68 11.5.93 3.85 1.764 11.5 1.855 17 .155 9.445.369 10.388 3.855 17 6.365 12.071 10.384 16.572 17.133 19.184 3.27 1.266 7.32 3.578 9 5.138 3.439 3.194 11.863 9.283 15.376 11.114 1.277.666 4.775 1.85 7.774 2.63 3 .782 7.805 2.77 10.68 4.418 7.203 4.131 8.372 3.94 5.637-.927m-153.205-10.295c-.239-1.244-.444-.462-.455 1.738-.01 2.2.185 3.218.435 2.262s.26-2.756.02-4m171.281-25.012c-.009-1.652-2.703-4.375-10.141-10.25-5.571-4.4-11.528-9.154-13.238-10.564-8.364-6.897-12.609-8.632-12.609-5.155 0 2.129 9.146 11.129 17.5 17.22 3.3 2.407 7.986 5.866 10.414 7.687 5.244 3.934 8.091 4.309 8.074 1.062m-219.992-15c-.004-3.89-2.088-7.47-8.439-14.5-5.112-5.659-5.99-5.94-12.022-3.84-5.734 1.996-5.409 3.25 1.051 4.058 6.412.8 7.975 2.087 14.112 11.614 2.091 3.245 4.14 5.904 4.552 5.91.412.004.748-1.455.746-3.242m20.366-13.527c.264-.427-.878-5.715-2.539-11.75-1.66-6.035-3.312-12.773-3.67-14.973-.425-2.599-1.178-4-2.153-4-2.51 0-2.465 7.689.077 13.228 1.205 2.625 2.545 7.158 2.978 10.074.959 6.462 3.61 10.168 5.307 7.421m179.238-.385c.864-1.397-3.09-4.838-5.56-4.838-3.498 0-9.63-5.619-11.905-10.909-3.363-7.817-4.191-23.091-1.252-23.091.465 0 1.63 2.057 2.591 4.572 1.958 5.126 5.458 7.56 7.927 5.51 1.267-1.052 1.136-2.074-.993-7.732-2.79-7.41-2.66-10.983.917-25.35 1.601-6.432 2.097-11.42 2.039-20.5-.093-14.352-1.82-19.869-9.28-29.643-8.685-11.38-12.975-14.999-24.64-20.788-7.562-3.753-13.324-7.516-18.644-12.176-9.88-8.653-19.12-14.106-31.449-18.558-12.414-4.482-27.724-5.638-38.224-2.887-17.877 4.685-30.584 12.326-39.958 24.026-2.931 3.66-7.702 8.171-10.602 10.026-6.29 4.024-13.02 10.807-18.823 18.971-2.334 3.284-6.97 8.91-10.304 12.5C317.698 262.623 316 265.05 316 269.18c0 4.719 1.01 4.808 4.382.386 1.44-1.889 5.34-5.571 8.663-8.183 3.66-2.875 7.88-7.536 10.697-11.815C345.98 240.09 358.886 225 360.752 225c.825 0 6.956-5.313 13.624-11.806 9.666-9.412 13.746-12.635 20.124-15.9 18.833-9.639 30.607-10.813 49-4.887 12.588 4.056 22.495 9.926 32.518 19.27 6.692 6.238 10.312 8.52 15.482 9.763 7.203 1.732 12.372 4.853 17.116 10.336 12.573 14.531 15.646 21.041 16.202 34.328.317 7.545-.069 11.512-1.796 18.5-1.21 4.893-2.779 11.915-3.487 15.604-.836 4.36-2.184 7.774-3.85 9.755-3.293 3.913-4.297 10.59-2.808 18.67 2.092 11.356 6.654 19.279 11.139 19.345.833.012 3.083.896 5 1.965 3.982 2.22 7.536 2.59 8.584.895m-329.059-10.854c1.47-.558 6.859-5.058 11.975-10 5.117-4.941 9.76-8.984 10.317-8.984 1.926 0 7.167-5.184 7.167-7.089 0-4.258-7.12-.777-16.5 8.066-4.669 4.401-13.034 11.167-18.943 15.32-1.407.988-2.557 2.225-2.557 2.75 0 1.257 5.17 1.22 8.541-.063m117.33-41.417c3.765-1.947 10.759-12.622 12.754-19.468 4.3-14.755 6.399-20.09 10.228-26.004 6.87-10.612 4.718-11.227-3.567-1.02-6.25 7.7-6.95 9.036-12.803 24.425-2.51 6.6-5.896 13.874-7.524 16.163-2.67 3.757-3.845 7.337-2.41 7.337.303 0 1.798-.645 3.322-1.433m178.776-13.151c2.472-3.772 2.939-16.248.929-24.82-2.146-9.155-4.345-13.848-9.966-21.278-2.573-3.4-5.355-8.463-6.182-11.25-1.494-5.029-3.635-6.577-4.821-3.486-1.37 3.572-.455 7.411 2.875 12.059 11.388 15.89 16 32.22 12.523 44.343-1.865 6.5 1.304 9.526 4.642 4.432m-263.302 161.04c-.326-.848-.341-1.793-.035-2.1.876-.875 2.69.61 2.69 2.203 0 1.919-1.908 1.845-2.655-.102m343.322-1.123c-.998-.997-.804-4.333.251-4.333 1.993 0 4.082 1.28 4.082 2.5 0 .707-.712 1.56-1.582 1.893-1.958.752-1.94.752-2.751-.06m23.89-18.885c-.92-1.404-3.735-4.646-6.257-7.204s-6.006-6.922-7.743-9.697c-4.913-7.851-12.56-25.101-15.663-35.329-3.456-11.392-3.442-11.37-6.52-10.597-2.078.522-3.246-.17-6.89-4.084-3.44-3.693-4.525-5.719-5.022-9.374-.349-2.565-1.322-8.201-2.162-12.526l-1.527-7.864 2.767-7.136c3.856-9.947 5.447-11.863 13.178-15.873 9.44-4.897 15.279-6.5 26.32-7.226 9.456-.622 9.574-.601 13.698 2.386 3.743 2.711 6.96 6.713 6.094 7.58-.183.183-6.484.734-14.002 1.226-14.25.932-18.022 2.126-15.67 4.96.983 1.184 4.155 1.308 18.776.73 15.71-.62 17.741-.516 18.972.967.759.914 1.057 1.984.663 2.377-.394.394-5.295.72-10.892.726-12.37.012-18.175 2.284-22.493 8.805-2.395 3.617-2.67 4.922-2.554 12.13.071 4.44.164 11.5.206 15.687.135 13.366 4.378 27.074 7.435 24.017q.999-1-.32-5.814c-.726-2.648-1.637-8.415-2.025-12.815s-1.223-11.533-1.856-15.85c-1.067-7.275-.996-8.171.96-12.211 1.685-3.482 3.215-4.901 7.595-7.044 5.39-2.637 5.633-2.663 14.18-1.499 15.203 2.07 17.077 3.126 19.253 10.841 1.12 3.97 1.044 4.363-1.182 6.217-1.307 1.089-3.332 1.994-4.501 2.013-4.163.065-8.288 1.286-9.79 2.897-.84.9-3.176 3.37-5.192 5.489l-3.665 3.852.561 7.648c.657 8.96 2.734 15.515 5.06 15.97 2.018.396 2.177-3.55.562-13.96-1.29-8.307-.102-12.526 3.799-13.505 1.351-.34 6.132-.221 10.623.263l8.167.879.285 10.892c.218 8.322-.186 12.756-1.712 18.79-2.108 8.338-6.529 19.121-8.514 20.769-2.06 1.71-13.222-8.54-16.277-14.946-1.443-3.028-3.292-6.293-4.108-7.255-1.745-2.058-5.022-2.31-5.739-.442-.786 2.05 6.607 14.476 11.051 18.573 2.208 2.035 5.522 5.604 7.365 7.93 3.903 4.929 3.907 4.915-4.846 14.493-5.752 6.294-7.95 6.955-10.447 3.144m-32.227-73.601c.411-1.574-.376-3.093-2.923-5.64-1.917-1.917-3.994-4.434-4.614-5.594-2.177-4.067-1.899.26.293 4.562 4.61 9.051 6.231 10.544 7.244 6.672M338.12 424.419c-14.749-2.147-21.051-6.2-22.617-14.544-1.432-7.635 2.827-15.027 10.506-18.235 1.93-.807 8.68-2.197 15-3.09s14.502-2.056 18.183-2.586 7.832-.964 9.225-.964c2.305 0 2.445.23 1.557 2.565-.536 1.41-.975 3.78-.975 5.265 0 3.868-3.348 9.58-8.523 14.537-4.011 3.844-4.477 4.76-4.477 8.816 0 3.417-.6 5.173-2.452 7.171-2.747 2.964-2.504 2.947-15.427 1.065m6.434-13.593c.865-2.723-1.717-4.826-5.925-4.826-1.644 0-6.042-.984-9.775-2.186-6.6-2.126-6.843-2.135-8.82-.345-3.363 3.043-2.387 4.024 5.215 5.241 3.988.639 9.05 1.813 11.25 2.61 5.711 2.066 7.273 1.97 8.055-.494M353 395.8c0-1.567-.275-1.645-2-.568-2.003 1.25-2.634 3.8-1.277 5.157.958.959 3.277-2.288 3.277-4.589m-148.75 24.45c-1.238-1.238-2.25-2.633-2.25-3.1 0-1.91 2.257-7.15 3.079-7.15 1.28 0 2.11 4.09 1.74 8.595l-.319 3.905Zm158.457-4.877c-.99-.988 2.188-6.373 3.76-6.373 2.337 0 2.805 1.937 1.096 4.544-1.555 2.373-3.558 3.128-4.856 1.83M299.12 372.06c-6.341-6.315-8.755-8.072-11.796-8.582-5.984-1.003-6.069-1.144-1.824-3.045 2.2-.984 7.017-1.984 10.704-2.221 5.506-.354 7.292-.066 10 1.613 5.403 3.35 9.825 8.566 10.396 12.26.488 3.155.222 3.588-3.484 5.666-2.207 1.238-4.465 2.25-5.018 2.25s-4.593-3.573-8.978-7.94m87.233-11.075c.332-1.658 1.798-5.54 3.258-8.628 2.379-5.028 2.597-6.405 2.097-13.234-.564-7.702.743-14.106 3.035-14.87.608-.202 2.318 1.796 3.8 4.44 2.636 4.7 4.27 7.196 13.208 20.164 4.626 6.712 4.767 8.12 1.053 10.511-1.793 1.154-21.42 4.633-26.139 4.633-.503 0-.644-1.357-.312-3.016m31.886-59.319c-21.568-7.822-17.95-38.829 4.722-40.469 8.502-.615 12.132.336 16.91 4.426 7.972 6.824 10.108 15.42 6.052 24.36-2.66 5.866-4.45 7.74-10.14 10.626-5.209 2.642-12.04 3.053-17.544 1.057m-190.68-1.735c-2.167-.538-4.103-1.14-4.302-1.34-.709-.708 7.187-5.002 13.166-7.16 5.588-2.017 6.208-2.545 7.703-6.562l1.627-4.368 6.373-.829c3.506-.455 8.635-1.254 11.398-1.773 7.644-1.439 20.58-9.898 15.135-9.898-.83 0-4.804 1.302-8.833 2.892-8.466 3.343-20.828 5.087-20.822 2.938.007-2.534 4.304-8.364 11.383-15.442 8.176-8.175 17.568-13.435 29.387-16.458 8.24-2.108 19.712-2.571 20.782-.84.37.6-.877 2.737-2.773 4.75-5.025 5.336-11.13 14.146-10.346 14.93.372.372 2.495-1.234 4.717-3.57 5.02-5.277 10.707-9.673 11.493-8.886 2.004 2.004-2.945 9.379-16.283 24.263-9.58 10.69-18.89 15.58-45.864 24.085-12.371 3.9-18.193 4.696-23.94 3.268m326.028-6.79c-.294-.475.075-2.614.82-4.752.744-2.138 2.323-6.795 3.508-10.348 3.023-9.064 4.43-10.385 10.24-9.614 2.567.34 7.912.116 11.876-.499 8.137-1.262 8.876-.918 10.87 5.063 1.5 4.503.497 5.268-9.113 6.952-12.798 2.243-18.934 4.966-22.426 9.951-1.81 2.584-5.057 4.41-5.775 3.248M321 235.608c0-2.127 2.814-4.607 5.226-4.607 2.051 0 2.054.033.19 2.093-2.816 3.111-5.416 4.318-5.416 2.514m5-11.452c0-2.557 9.496-14.894 17.875-23.223 8.577-8.526 23.622-19.932 26.29-19.932 1.655 0-2.336 6.11-12.915 19.768-1.137 1.469-1.38 1.44-2.691-.327-2.196-2.957-4.392-.923-6.938 6.426-2.663 7.684-7.511 13.725-13.027 16.23-4.31 1.957-8.594 2.484-8.594 1.058" style="display:inline;fill:#031c95" transform="translate(-183.124 -165.048)"/></svg>